%TF.GenerationSoftware,KiCad,Pcbnew,(5.1.6-0-10_14)*%
%TF.CreationDate,2020-07-14T22:31:58-07:00*%
%TF.ProjectId,switch_board,73776974-6368-45f6-926f-6172642e6b69,rev?*%
%TF.SameCoordinates,Original*%
%TF.FileFunction,Copper,L2,Bot*%
%TF.FilePolarity,Positive*%
%FSLAX46Y46*%
G04 Gerber Fmt 4.6, Leading zero omitted, Abs format (unit mm)*
G04 Created by KiCad (PCBNEW (5.1.6-0-10_14)) date 2020-07-14 22:31:58*
%MOMM*%
%LPD*%
G01*
G04 APERTURE LIST*
%TA.AperFunction,ComponentPad*%
%ADD10C,2.500000*%
%TD*%
%TA.AperFunction,Conductor*%
%ADD11C,0.254000*%
%TD*%
G04 APERTURE END LIST*
D10*
%TO.P,SW1,6*%
%TO.N,Net-(J1-Pad6)*%
X156935000Y-53655000D03*
%TO.P,SW1,5*%
%TO.N,Net-(J1-Pad5)*%
X156935000Y-57655000D03*
%TO.P,SW1,4*%
%TO.N,Net-(J1-Pad4)*%
X156935000Y-61655000D03*
%TO.P,SW1,3*%
%TO.N,Net-(J1-Pad3)*%
X151935000Y-53655000D03*
%TO.P,SW1,2*%
%TO.N,GND*%
X151935000Y-57655000D03*
%TO.P,SW1,1*%
%TO.N,Net-(J1-Pad1)*%
X151935000Y-61655000D03*
%TD*%
D11*
%TO.N,GND*%
G36*
X162815001Y-78815000D02*
G01*
X146685000Y-78815000D01*
X146685000Y-61469344D01*
X150050000Y-61469344D01*
X150050000Y-61840656D01*
X150122439Y-62204834D01*
X150264534Y-62547882D01*
X150470825Y-62856618D01*
X150733382Y-63119175D01*
X151042118Y-63325466D01*
X151385166Y-63467561D01*
X151749344Y-63540000D01*
X152120656Y-63540000D01*
X152484834Y-63467561D01*
X152827882Y-63325466D01*
X153136618Y-63119175D01*
X153399175Y-62856618D01*
X153605466Y-62547882D01*
X153747561Y-62204834D01*
X153820000Y-61840656D01*
X153820000Y-61469344D01*
X155050000Y-61469344D01*
X155050000Y-61840656D01*
X155122439Y-62204834D01*
X155264534Y-62547882D01*
X155470825Y-62856618D01*
X155733382Y-63119175D01*
X156042118Y-63325466D01*
X156385166Y-63467561D01*
X156749344Y-63540000D01*
X157120656Y-63540000D01*
X157484834Y-63467561D01*
X157827882Y-63325466D01*
X158136618Y-63119175D01*
X158399175Y-62856618D01*
X158605466Y-62547882D01*
X158747561Y-62204834D01*
X158820000Y-61840656D01*
X158820000Y-61469344D01*
X158747561Y-61105166D01*
X158605466Y-60762118D01*
X158399175Y-60453382D01*
X158136618Y-60190825D01*
X157827882Y-59984534D01*
X157484834Y-59842439D01*
X157120656Y-59770000D01*
X156749344Y-59770000D01*
X156385166Y-59842439D01*
X156042118Y-59984534D01*
X155733382Y-60190825D01*
X155470825Y-60453382D01*
X155264534Y-60762118D01*
X155122439Y-61105166D01*
X155050000Y-61469344D01*
X153820000Y-61469344D01*
X153747561Y-61105166D01*
X153605466Y-60762118D01*
X153399175Y-60453382D01*
X153136618Y-60190825D01*
X152827882Y-59984534D01*
X152484834Y-59842439D01*
X152120656Y-59770000D01*
X151749344Y-59770000D01*
X151385166Y-59842439D01*
X151042118Y-59984534D01*
X150733382Y-60190825D01*
X150470825Y-60453382D01*
X150264534Y-60762118D01*
X150122439Y-61105166D01*
X150050000Y-61469344D01*
X146685000Y-61469344D01*
X146685000Y-58968605D01*
X150801000Y-58968605D01*
X150926914Y-59258577D01*
X151259126Y-59424433D01*
X151617312Y-59522290D01*
X151987706Y-59548389D01*
X152356075Y-59501725D01*
X152708262Y-59384094D01*
X152943086Y-59258577D01*
X153069000Y-58968605D01*
X151935000Y-57834605D01*
X150801000Y-58968605D01*
X146685000Y-58968605D01*
X146685000Y-57707706D01*
X150041611Y-57707706D01*
X150088275Y-58076075D01*
X150205906Y-58428262D01*
X150331423Y-58663086D01*
X150621395Y-58789000D01*
X151755395Y-57655000D01*
X152114605Y-57655000D01*
X153248605Y-58789000D01*
X153538577Y-58663086D01*
X153704433Y-58330874D01*
X153802290Y-57972688D01*
X153828389Y-57602294D01*
X153811548Y-57469344D01*
X155050000Y-57469344D01*
X155050000Y-57840656D01*
X155122439Y-58204834D01*
X155264534Y-58547882D01*
X155470825Y-58856618D01*
X155733382Y-59119175D01*
X156042118Y-59325466D01*
X156385166Y-59467561D01*
X156749344Y-59540000D01*
X157120656Y-59540000D01*
X157484834Y-59467561D01*
X157827882Y-59325466D01*
X158136618Y-59119175D01*
X158399175Y-58856618D01*
X158605466Y-58547882D01*
X158747561Y-58204834D01*
X158820000Y-57840656D01*
X158820000Y-57469344D01*
X158747561Y-57105166D01*
X158605466Y-56762118D01*
X158399175Y-56453382D01*
X158136618Y-56190825D01*
X157827882Y-55984534D01*
X157484834Y-55842439D01*
X157120656Y-55770000D01*
X156749344Y-55770000D01*
X156385166Y-55842439D01*
X156042118Y-55984534D01*
X155733382Y-56190825D01*
X155470825Y-56453382D01*
X155264534Y-56762118D01*
X155122439Y-57105166D01*
X155050000Y-57469344D01*
X153811548Y-57469344D01*
X153781725Y-57233925D01*
X153664094Y-56881738D01*
X153538577Y-56646914D01*
X153248605Y-56521000D01*
X152114605Y-57655000D01*
X151755395Y-57655000D01*
X150621395Y-56521000D01*
X150331423Y-56646914D01*
X150165567Y-56979126D01*
X150067710Y-57337312D01*
X150041611Y-57707706D01*
X146685000Y-57707706D01*
X146685000Y-56341395D01*
X150801000Y-56341395D01*
X151935000Y-57475395D01*
X153069000Y-56341395D01*
X152943086Y-56051423D01*
X152610874Y-55885567D01*
X152252688Y-55787710D01*
X151882294Y-55761611D01*
X151513925Y-55808275D01*
X151161738Y-55925906D01*
X150926914Y-56051423D01*
X150801000Y-56341395D01*
X146685000Y-56341395D01*
X146685000Y-53469344D01*
X150050000Y-53469344D01*
X150050000Y-53840656D01*
X150122439Y-54204834D01*
X150264534Y-54547882D01*
X150470825Y-54856618D01*
X150733382Y-55119175D01*
X151042118Y-55325466D01*
X151385166Y-55467561D01*
X151749344Y-55540000D01*
X152120656Y-55540000D01*
X152484834Y-55467561D01*
X152827882Y-55325466D01*
X153136618Y-55119175D01*
X153399175Y-54856618D01*
X153605466Y-54547882D01*
X153747561Y-54204834D01*
X153820000Y-53840656D01*
X153820000Y-53469344D01*
X155050000Y-53469344D01*
X155050000Y-53840656D01*
X155122439Y-54204834D01*
X155264534Y-54547882D01*
X155470825Y-54856618D01*
X155733382Y-55119175D01*
X156042118Y-55325466D01*
X156385166Y-55467561D01*
X156749344Y-55540000D01*
X157120656Y-55540000D01*
X157484834Y-55467561D01*
X157827882Y-55325466D01*
X158136618Y-55119175D01*
X158399175Y-54856618D01*
X158605466Y-54547882D01*
X158747561Y-54204834D01*
X158820000Y-53840656D01*
X158820000Y-53469344D01*
X158747561Y-53105166D01*
X158605466Y-52762118D01*
X158399175Y-52453382D01*
X158136618Y-52190825D01*
X157827882Y-51984534D01*
X157484834Y-51842439D01*
X157120656Y-51770000D01*
X156749344Y-51770000D01*
X156385166Y-51842439D01*
X156042118Y-51984534D01*
X155733382Y-52190825D01*
X155470825Y-52453382D01*
X155264534Y-52762118D01*
X155122439Y-53105166D01*
X155050000Y-53469344D01*
X153820000Y-53469344D01*
X153747561Y-53105166D01*
X153605466Y-52762118D01*
X153399175Y-52453382D01*
X153136618Y-52190825D01*
X152827882Y-51984534D01*
X152484834Y-51842439D01*
X152120656Y-51770000D01*
X151749344Y-51770000D01*
X151385166Y-51842439D01*
X151042118Y-51984534D01*
X150733382Y-52190825D01*
X150470825Y-52453382D01*
X150264534Y-52762118D01*
X150122439Y-53105166D01*
X150050000Y-53469344D01*
X146685000Y-53469344D01*
X146685000Y-50685000D01*
X162815000Y-50685000D01*
X162815001Y-78815000D01*
G37*
X162815001Y-78815000D02*
X146685000Y-78815000D01*
X146685000Y-61469344D01*
X150050000Y-61469344D01*
X150050000Y-61840656D01*
X150122439Y-62204834D01*
X150264534Y-62547882D01*
X150470825Y-62856618D01*
X150733382Y-63119175D01*
X151042118Y-63325466D01*
X151385166Y-63467561D01*
X151749344Y-63540000D01*
X152120656Y-63540000D01*
X152484834Y-63467561D01*
X152827882Y-63325466D01*
X153136618Y-63119175D01*
X153399175Y-62856618D01*
X153605466Y-62547882D01*
X153747561Y-62204834D01*
X153820000Y-61840656D01*
X153820000Y-61469344D01*
X155050000Y-61469344D01*
X155050000Y-61840656D01*
X155122439Y-62204834D01*
X155264534Y-62547882D01*
X155470825Y-62856618D01*
X155733382Y-63119175D01*
X156042118Y-63325466D01*
X156385166Y-63467561D01*
X156749344Y-63540000D01*
X157120656Y-63540000D01*
X157484834Y-63467561D01*
X157827882Y-63325466D01*
X158136618Y-63119175D01*
X158399175Y-62856618D01*
X158605466Y-62547882D01*
X158747561Y-62204834D01*
X158820000Y-61840656D01*
X158820000Y-61469344D01*
X158747561Y-61105166D01*
X158605466Y-60762118D01*
X158399175Y-60453382D01*
X158136618Y-60190825D01*
X157827882Y-59984534D01*
X157484834Y-59842439D01*
X157120656Y-59770000D01*
X156749344Y-59770000D01*
X156385166Y-59842439D01*
X156042118Y-59984534D01*
X155733382Y-60190825D01*
X155470825Y-60453382D01*
X155264534Y-60762118D01*
X155122439Y-61105166D01*
X155050000Y-61469344D01*
X153820000Y-61469344D01*
X153747561Y-61105166D01*
X153605466Y-60762118D01*
X153399175Y-60453382D01*
X153136618Y-60190825D01*
X152827882Y-59984534D01*
X152484834Y-59842439D01*
X152120656Y-59770000D01*
X151749344Y-59770000D01*
X151385166Y-59842439D01*
X151042118Y-59984534D01*
X150733382Y-60190825D01*
X150470825Y-60453382D01*
X150264534Y-60762118D01*
X150122439Y-61105166D01*
X150050000Y-61469344D01*
X146685000Y-61469344D01*
X146685000Y-58968605D01*
X150801000Y-58968605D01*
X150926914Y-59258577D01*
X151259126Y-59424433D01*
X151617312Y-59522290D01*
X151987706Y-59548389D01*
X152356075Y-59501725D01*
X152708262Y-59384094D01*
X152943086Y-59258577D01*
X153069000Y-58968605D01*
X151935000Y-57834605D01*
X150801000Y-58968605D01*
X146685000Y-58968605D01*
X146685000Y-57707706D01*
X150041611Y-57707706D01*
X150088275Y-58076075D01*
X150205906Y-58428262D01*
X150331423Y-58663086D01*
X150621395Y-58789000D01*
X151755395Y-57655000D01*
X152114605Y-57655000D01*
X153248605Y-58789000D01*
X153538577Y-58663086D01*
X153704433Y-58330874D01*
X153802290Y-57972688D01*
X153828389Y-57602294D01*
X153811548Y-57469344D01*
X155050000Y-57469344D01*
X155050000Y-57840656D01*
X155122439Y-58204834D01*
X155264534Y-58547882D01*
X155470825Y-58856618D01*
X155733382Y-59119175D01*
X156042118Y-59325466D01*
X156385166Y-59467561D01*
X156749344Y-59540000D01*
X157120656Y-59540000D01*
X157484834Y-59467561D01*
X157827882Y-59325466D01*
X158136618Y-59119175D01*
X158399175Y-58856618D01*
X158605466Y-58547882D01*
X158747561Y-58204834D01*
X158820000Y-57840656D01*
X158820000Y-57469344D01*
X158747561Y-57105166D01*
X158605466Y-56762118D01*
X158399175Y-56453382D01*
X158136618Y-56190825D01*
X157827882Y-55984534D01*
X157484834Y-55842439D01*
X157120656Y-55770000D01*
X156749344Y-55770000D01*
X156385166Y-55842439D01*
X156042118Y-55984534D01*
X155733382Y-56190825D01*
X155470825Y-56453382D01*
X155264534Y-56762118D01*
X155122439Y-57105166D01*
X155050000Y-57469344D01*
X153811548Y-57469344D01*
X153781725Y-57233925D01*
X153664094Y-56881738D01*
X153538577Y-56646914D01*
X153248605Y-56521000D01*
X152114605Y-57655000D01*
X151755395Y-57655000D01*
X150621395Y-56521000D01*
X150331423Y-56646914D01*
X150165567Y-56979126D01*
X150067710Y-57337312D01*
X150041611Y-57707706D01*
X146685000Y-57707706D01*
X146685000Y-56341395D01*
X150801000Y-56341395D01*
X151935000Y-57475395D01*
X153069000Y-56341395D01*
X152943086Y-56051423D01*
X152610874Y-55885567D01*
X152252688Y-55787710D01*
X151882294Y-55761611D01*
X151513925Y-55808275D01*
X151161738Y-55925906D01*
X150926914Y-56051423D01*
X150801000Y-56341395D01*
X146685000Y-56341395D01*
X146685000Y-53469344D01*
X150050000Y-53469344D01*
X150050000Y-53840656D01*
X150122439Y-54204834D01*
X150264534Y-54547882D01*
X150470825Y-54856618D01*
X150733382Y-55119175D01*
X151042118Y-55325466D01*
X151385166Y-55467561D01*
X151749344Y-55540000D01*
X152120656Y-55540000D01*
X152484834Y-55467561D01*
X152827882Y-55325466D01*
X153136618Y-55119175D01*
X153399175Y-54856618D01*
X153605466Y-54547882D01*
X153747561Y-54204834D01*
X153820000Y-53840656D01*
X153820000Y-53469344D01*
X155050000Y-53469344D01*
X155050000Y-53840656D01*
X155122439Y-54204834D01*
X155264534Y-54547882D01*
X155470825Y-54856618D01*
X155733382Y-55119175D01*
X156042118Y-55325466D01*
X156385166Y-55467561D01*
X156749344Y-55540000D01*
X157120656Y-55540000D01*
X157484834Y-55467561D01*
X157827882Y-55325466D01*
X158136618Y-55119175D01*
X158399175Y-54856618D01*
X158605466Y-54547882D01*
X158747561Y-54204834D01*
X158820000Y-53840656D01*
X158820000Y-53469344D01*
X158747561Y-53105166D01*
X158605466Y-52762118D01*
X158399175Y-52453382D01*
X158136618Y-52190825D01*
X157827882Y-51984534D01*
X157484834Y-51842439D01*
X157120656Y-51770000D01*
X156749344Y-51770000D01*
X156385166Y-51842439D01*
X156042118Y-51984534D01*
X155733382Y-52190825D01*
X155470825Y-52453382D01*
X155264534Y-52762118D01*
X155122439Y-53105166D01*
X155050000Y-53469344D01*
X153820000Y-53469344D01*
X153747561Y-53105166D01*
X153605466Y-52762118D01*
X153399175Y-52453382D01*
X153136618Y-52190825D01*
X152827882Y-51984534D01*
X152484834Y-51842439D01*
X152120656Y-51770000D01*
X151749344Y-51770000D01*
X151385166Y-51842439D01*
X151042118Y-51984534D01*
X150733382Y-52190825D01*
X150470825Y-52453382D01*
X150264534Y-52762118D01*
X150122439Y-53105166D01*
X150050000Y-53469344D01*
X146685000Y-53469344D01*
X146685000Y-50685000D01*
X162815000Y-50685000D01*
X162815001Y-78815000D01*
%TD*%
M02*
