%TF.GenerationSoftware,KiCad,Pcbnew,(5.1.6-0-10_14)*%
%TF.CreationDate,2020-07-14T22:31:58-07:00*%
%TF.ProjectId,switch_board,73776974-6368-45f6-926f-6172642e6b69,rev?*%
%TF.SameCoordinates,Original*%
%TF.FileFunction,Legend,Top*%
%TF.FilePolarity,Positive*%
%FSLAX46Y46*%
G04 Gerber Fmt 4.6, Leading zero omitted, Abs format (unit mm)*
G04 Created by KiCad (PCBNEW (5.1.6-0-10_14)) date 2020-07-14 22:31:58*
%MOMM*%
%LPD*%
G01*
G04 APERTURE LIST*
%ADD10C,1.000000*%
%ADD11C,0.120000*%
%ADD12C,0.150000*%
G04 APERTURE END LIST*
D10*
%TO.C,SW1*%
X148435000Y-64355000D02*
X148435000Y-50955000D01*
X160435000Y-64355000D02*
X148435000Y-64355000D01*
X160435000Y-50955000D02*
X160435000Y-64355000D01*
X148435000Y-50955000D02*
X160435000Y-50955000D01*
D11*
%TO.C,J1*%
X148975000Y-72525000D02*
X147700000Y-72525000D01*
X147700000Y-72525000D02*
X147700000Y-70925000D01*
X147700000Y-70925000D02*
X146700000Y-70925000D01*
X146700000Y-70925000D02*
X146700000Y-75150000D01*
X162800000Y-75150000D02*
X162800000Y-70925000D01*
X162800000Y-70925000D02*
X161800000Y-70925000D01*
X161800000Y-70925000D02*
X161800000Y-72525000D01*
X161800000Y-72525000D02*
X160525000Y-72525000D01*
X148425000Y-78725000D02*
X161075000Y-78725000D01*
X148975000Y-72525000D02*
X148975000Y-69625000D01*
%TO.C,SW1*%
D12*
X150432126Y-45509621D02*
X150574983Y-45557240D01*
X150813079Y-45557240D01*
X150908317Y-45509621D01*
X150955936Y-45462002D01*
X151003555Y-45366764D01*
X151003555Y-45271526D01*
X150955936Y-45176288D01*
X150908317Y-45128669D01*
X150813079Y-45081050D01*
X150622602Y-45033431D01*
X150527364Y-44985812D01*
X150479745Y-44938193D01*
X150432126Y-44842955D01*
X150432126Y-44747717D01*
X150479745Y-44652479D01*
X150527364Y-44604860D01*
X150622602Y-44557240D01*
X150860698Y-44557240D01*
X151003555Y-44604860D01*
X151336888Y-44557240D02*
X151574983Y-45557240D01*
X151765460Y-44842955D01*
X151955936Y-45557240D01*
X152194031Y-44557240D01*
X153098793Y-45557240D02*
X152527364Y-45557240D01*
X152813079Y-45557240D02*
X152813079Y-44557240D01*
X152717840Y-44700098D01*
X152622602Y-44795336D01*
X152527364Y-44842955D01*
%TO.C,J1*%
X154416666Y-68077380D02*
X154416666Y-68791666D01*
X154369047Y-68934523D01*
X154273809Y-69029761D01*
X154130952Y-69077380D01*
X154035714Y-69077380D01*
X155416666Y-69077380D02*
X154845238Y-69077380D01*
X155130952Y-69077380D02*
X155130952Y-68077380D01*
X155035714Y-68220238D01*
X154940476Y-68315476D01*
X154845238Y-68363095D01*
%TD*%
M02*
